<?xml version="1.0" encoding="utf-8"?>
<!-- Generator: Adobe Illustrator 30.2.1, SVG Export Plug-In . SVG Version: 9.03 Build 0)  -->
<svg version="1.0" xmlns="http://www.w3.org/2000/svg" xmlns:xlink="http://www.w3.org/1999/xlink" x="0px" y="0px"
	 viewBox="0 0 550.6 388.6" enable-background="new 0 0 550.6 388.6" xml:space="preserve">
<g id="logos">
	<g>
		<path fill="#F9F9F9" d="M275.4,20.7c128.2,0,236.3,87.5,267.7,205.9C521.7,98.2,409.8,0,275.4,0C141,0,29.1,98.2,7.7,226.6
			C39.1,108.2,147.2,20.7,275.4,20.7z"/>
		<path fill="#F9F9F9" d="M119.1,200.9c2.6-2.6,5.5-4.6,8.9-6c3.4-1.5,7-2.2,10.8-2.2h50.4v33.1h-61.9V238h61.9v33.9h12.1v-91.3
			h-62.5c-5.6,0-10.8,1-15.7,3.1c-4.8,2.1-9.1,5-12.8,8.6c-3.7,3.6-6.6,7.9-8.7,12.8c-2.1,4.9-3.1,10.1-3.1,15.6v51.3h12.2v-51.3
			c0-3.8,0.7-7.5,2.2-10.8C114.5,206.4,116.5,203.5,119.1,200.9z"/>
		<path fill="#F9F9F9" d="M235.7,192.7h79.6v-12.1h-79.6c-3.2,0-6.1,0.6-8.9,1.8s-5.3,2.9-7.3,4.9c-2.1,2-3.8,4.5-5,7.3
			c-1.2,2.8-1.8,5.8-1.8,8.9c0,3.8,0.8,7.4,2.5,10.6c1.7,3.2,3.9,5.9,6.7,8c-2.8,2.7-5,5.8-6.7,9.4c-1.7,3.6-2.5,7.5-2.5,11.7v28.7
			h12.2v-28.7c0-2.3,0.4-4.5,1.3-6.5c0.9-2,2-3.7,3.5-5.2c1.5-1.5,3.2-2.7,5.3-3.6c2-0.9,4.2-1.3,6.4-1.3H287v-12.1h-51.3
			c-3,0-5.6-1.1-7.7-3.2c-2.1-2.2-3.2-4.8-3.2-7.8c0-3,1-5.6,3.2-7.7C230.1,193.7,232.7,192.7,235.7,192.7z"/>
		<path fill="#F9F9F9" d="M423.6,216.3c2.5-3.7,3.8-8,3.8-12.8c0-3.1-0.6-6.1-1.8-8.9c-1.2-2.8-2.9-5.2-4.9-7.3
			c-2-2-4.5-3.7-7.3-4.9c-2.8-1.2-5.8-1.8-8.9-1.8h-79.8v12.1h79.8c3,0,5.6,1.1,7.7,3.1c2.1,2.1,3.2,4.7,3.2,7.7c0,3-1,5.6-3.2,7.8
			c-2.1,2.2-4.7,3.2-7.7,3.2h-39.7c-5.5,0-10.7,1.1-15.6,3.1c-4.9,2.1-9.2,5-12.8,8.6c-3.6,3.6-6.5,7.9-8.6,12.8
			c-2.1,4.9-3.2,10.1-3.2,15.6v17.3h12.2v-17.3c0-3.9,0.7-7.5,2.2-10.9c1.5-3.4,3.4-6.4,5.9-8.9c2.5-2.6,5.5-4.6,8.9-6
			c3.4-1.5,7.1-2.2,10.9-2.2h22c3.9,0,7.5,0.8,10.9,2.3c3.4,1.5,6.4,3.6,9,6.1c2.6,2.6,4.6,5.6,6.1,9s2.3,7.1,2.3,10.9v17h12.1v-17
			c0-6.1-1.2-11.7-3.7-16.9c-2.4-5.2-5.8-9.7-10-13.4C417.8,222.8,421.1,220,423.6,216.3z"/>
		<rect x="438.5" y="180.6" fill="#F9F9F9" width="12.2" height="91.3"/>
		<path fill="#F9F9F9" d="M90.6,324.2l-27.3,45.5c-1.3,2.1-3,3.8-5.1,5c-2.1,1.2-4.4,1.8-6.8,1.8c-2.4,0-4.7-0.6-6.8-1.8
			c-2.1-1.2-3.8-2.9-5.1-5l-27.3-45.5v-26.9H0v30.3L29,376c2.3,3.9,5.5,6.9,9.5,9.2c4,2.3,8.3,3.4,12.9,3.4c4.5,0,8.8-1.1,12.9-3.4
			s7.2-5.3,9.5-9.2l28.9-48.5v-30.3H90.6V324.2z"/>
		<path fill="#F9F9F9" d="M126.1,299.1c-2.8,1.2-5.3,2.9-7.3,4.9c-2.1,2-3.8,4.5-5,7.3s-1.8,5.8-1.8,8.9c0,3.8,0.8,7.4,2.5,10.6
			c1.7,3.2,3.9,5.9,6.7,8c-2.8,2.7-5,5.8-6.7,9.4c-1.7,3.6-2.5,7.5-2.5,11.7c0,4,0.8,7.7,2.3,11.1c1.5,3.4,3.6,6.5,6.2,9.1
			c2.6,2.6,5.7,4.7,9.1,6.2c3.4,1.5,7.1,2.3,11.1,2.3h74v-12.1h-74c-2.2,0-4.3-0.4-6.4-1.3c-2-0.9-3.8-2.1-5.3-3.6
			c-1.5-1.5-2.6-3.3-3.5-5.3c-0.9-2-1.3-4.2-1.3-6.4c0-2.3,0.4-4.5,1.3-6.5c0.9-2,2-3.7,3.5-5.2c1.5-1.5,3.2-2.7,5.3-3.6
			c2-0.9,4.2-1.3,6.4-1.3h45.7v-12.1h-51.3c-3,0-5.6-1.1-7.7-3.2c-2.1-2.2-3.2-4.8-3.2-7.8c0-3,1-5.6,3.2-7.7
			c2.1-2.1,4.7-3.1,7.7-3.1h79.6v-12.1h-79.6C131.9,297.2,128.9,297.9,126.1,299.1z"/>
		<path fill="#F9F9F9" d="M322.9,332.9c2.5-3.7,3.8-8,3.8-12.8c0-3.1-0.6-6.1-1.8-8.9c-1.2-2.8-2.9-5.2-4.9-7.3
			c-2-2-4.5-3.7-7.3-4.9c-2.8-1.2-5.8-1.8-8.9-1.8h-79.8v12.1h79.8c3,0,5.6,1.1,7.7,3.1c2.1,2.1,3.1,4.7,3.1,7.7c0,3-1,5.6-3.1,7.8
			c-2.1,2.2-4.7,3.2-7.7,3.2H264c-5.5,0-10.7,1.1-15.6,3.1c-4.9,2.1-9.2,5-12.8,8.6c-3.6,3.6-6.5,7.9-8.6,12.8
			c-2.1,4.9-3.1,10.1-3.1,15.6v17.3h12.2v-17.3c0-3.8,0.7-7.5,2.2-10.8c1.5-3.4,3.4-6.4,5.9-8.9c2.5-2.6,5.5-4.6,8.9-6
			c3.4-1.5,7.1-2.2,10.9-2.2h22c3.8,0,7.5,0.8,10.9,2.3c3.4,1.5,6.4,3.6,9,6.1c2.6,2.6,4.6,5.6,6.1,9c1.5,3.4,2.3,7.1,2.3,10.9v17
			h12.1v-17c0-6.1-1.2-11.7-3.7-16.9c-2.5-5.2-5.8-9.7-10-13.4C317.1,339.5,320.4,336.7,322.9,332.9z"/>
		<path fill="#F9F9F9" d="M350.1,299.1c-2.8,1.2-5.3,2.9-7.4,4.9c-2.1,2-3.8,4.5-5,7.3s-1.8,5.8-1.8,8.9c0,3.2,0.6,6.1,1.8,8.9
			s2.9,5.2,5,7.4c2.1,2.1,4.6,3.8,7.4,5c2.8,1.2,5.8,1.8,8.9,1.8h50.9c2.3,0,4.5,0.4,6.5,1.3c2,0.9,3.7,2.1,5.2,3.6
			c1.5,1.5,2.7,3.3,3.6,5.2c0.9,2,1.3,4.1,1.3,6.5c0,2.2-0.4,4.3-1.3,6.4c-0.9,2-2.1,3.8-3.6,5.3c-1.5,1.5-3.3,2.7-5.2,3.6
			c-2,0.9-4.1,1.3-6.5,1.3h-74v12.1h74c4,0,7.7-0.8,11.2-2.3c3.5-1.5,6.5-3.6,9.1-6.2c2.6-2.6,4.6-5.7,6.1-9.1
			c1.5-3.4,2.3-7.1,2.3-11.1c0-4-0.8-7.7-2.3-11.2c-1.5-3.5-3.6-6.5-6.1-9.1c-2.6-2.6-5.6-4.6-9.1-6.1c-3.5-1.5-7.2-2.3-11.2-2.3
			H359c-3,0-5.6-1.1-7.7-3.2c-2.1-2.2-3.1-4.8-3.1-7.8c0-3,1-5.6,3.1-7.7c2.1-2.1,4.7-3.1,7.7-3.1h79.6v-12.1H359
			C355.9,297.2,352.9,297.9,350.1,299.1z"/>
		<path fill="#F9F9F9" d="M471,309.3h79.6v-12.1H471c-3.1,0-6.1,0.6-8.9,1.8c-2.8,1.2-5.2,2.9-7.4,4.9c-2.1,2-3.8,4.5-5,7.3
			s-1.8,5.8-1.8,8.9c0,3.8,0.8,7.4,2.5,10.6c1.7,3.2,3.9,5.9,6.7,8c-2.8,2.7-5,5.8-6.7,9.4c-1.7,3.6-2.5,7.5-2.5,11.7
			c0,4,0.8,7.7,2.3,11.1c1.5,3.4,3.6,6.5,6.2,9.1c2.6,2.6,5.7,4.7,9.1,6.2c3.4,1.5,7.1,2.3,11.1,2.3h74v-12.1h-74
			c-2.2,0-4.3-0.4-6.4-1.3c-2-0.9-3.8-2.1-5.2-3.6c-1.5-1.5-2.6-3.3-3.5-5.3c-0.9-2-1.3-4.2-1.3-6.4c0-2.3,0.4-4.5,1.3-6.5
			c0.9-2,2-3.7,3.5-5.2c1.5-1.5,3.2-2.7,5.2-3.6c2-0.9,4.2-1.3,6.4-1.3h45.7v-12.1H471c-3,0-5.6-1.1-7.7-3.2
			c-2.1-2.2-3.2-4.8-3.2-7.8c0-3,1.1-5.6,3.2-7.7C465.4,310.4,468,309.3,471,309.3z"/>
		<path fill="#F9F9F9" d="M316.7,101c-41.1,0-41.1,0-41.1-41.1h-0.5c0,41.1,0,41.1-41.1,41.1v0.5c41.1,0,41.1,0,41.1,41.1h0.2v0v0
			h0.2c0-41.1,0-41.1,41.1-41.1V101z"/>
	</g>
</g>
<g id="type">
</g>
<g id="guides">
</g>
</svg>
